<svg width="528" height="384" viewBox="0 0 528 384" fill="none" xmlns="http://www.w3.org/2000/svg">
<path d="M270 0C283.255 0 294 10.7452 294 24V204H234V45C234 40.0294 229.971 36 225 36C220.029 36 216 40.0294 216 45V342C216 345.314 218.686 348 222 348H234V222H294V339C294 343.971 298.029 348 303 348C307.971 348 312 343.971 312 339V24C312 10.7452 322.745 0 336 0H504C517.255 0 528 10.7452 528 24V360C528 373.255 517.255 384 504 384H414C400.745 384 390 373.255 390 360V24H384C377.373 24 372 29.3726 372 36V360C372 373.255 361.255 384 348 384H180C166.745 384 156 373.255 156 360V24H150C143.373 24 138 29.3726 138 36V360C138 373.255 127.255 384 114 384H24C10.7452 384 0 373.255 0 360V222H60V339C60 343.971 64.0294 348 69 348C73.9706 348 78 343.971 78 339V24C78 10.7452 88.7452 0 102 0H270ZM459 36C454.029 36 450 40.0294 450 45V339C450 343.971 454.029 348 459 348C463.971 348 468 343.971 468 339V45C468 40.0294 463.971 36 459 36Z" fill="black"/>
</svg>
