<svg width="600" height="600" viewBox="0 0 600 600" fill="none" xmlns="http://www.w3.org/2000/svg">
<path d="M300 4C314.215 4 325.739 16.2562 325.739 31.375V291.438H300C285.785 291.438 274.261 303.694 274.261 318.812V428.312C274.261 435.872 268.499 442 261.392 442H203.479C189.263 442 177.739 429.744 177.739 414.625V45.0625H171.139C164.107 45.1569 158.435 51.2475 158.435 58.748V414.625C158.435 429.744 146.911 442 132.695 442H29.7393C15.5239 442 4 429.744 4 414.625V332.5C4 321.161 12.6432 311.969 23.3047 311.969H61.9131C69.0207 311.969 74.7822 318.097 74.7822 325.656V390.672C74.7822 396.341 79.1039 400.937 84.4346 400.938C89.7653 400.938 94.0869 396.341 94.0869 390.672V31.375C94.0869 16.2562 105.611 4 119.826 4H300ZM570.261 4C584.476 4 596 16.2562 596 31.375V414.625C596 429.744 584.476 442 570.261 442H473.739C459.524 442 448 429.744 448 414.625V45.0625H441.565L441.233 45.0674C434.279 45.2546 428.695 51.3086 428.695 58.75V414.625C428.695 429.744 417.171 442 402.956 442H306.435C292.219 442 280.695 429.744 280.695 414.625V318.812C280.695 307.473 289.339 298.281 300 298.281H332.174C339.281 298.281 345.044 304.409 345.044 311.969V390.672C345.044 396.341 349.365 400.937 354.695 400.938C360.026 400.938 364.348 396.341 364.348 390.672V31.375C364.348 16.2562 375.872 4.00002 390.087 4H570.261ZM251.242 45.0762C246.142 45.3513 242.087 49.8358 242.087 55.3281V390.672C242.087 396.341 246.409 400.938 251.739 400.938C257.07 400.937 261.392 396.341 261.392 390.672V55.3281C261.392 49.8356 257.335 45.3509 252.235 45.0762L251.739 45.0625L251.242 45.0762ZM521.503 45.0762C516.403 45.3513 512.348 49.8359 512.348 55.3281V390.672C512.348 396.341 516.669 400.938 522 400.938C527.331 400.937 531.652 396.341 531.652 390.672V55.3281C531.652 49.8359 527.597 45.3513 522.497 45.0762L522 45.0625L521.503 45.0762Z" fill="#7C0E0F"/>
<path d="M132.695 486.909H94.0869V473.272H68.3477V500.546H132.695V596H4V527.818H68.3477V568.728H94.0869V514.182H4V446H132.695V486.909ZM171.305 596H152V473.272H139.131V446H184.174V473.272H171.305V596ZM261.392 568.728H280.695V446H306.435V596H190.608V446H261.392V568.728ZM415.826 473.272H435.131V568.728H415.826V596H325.739V446H415.826V473.272ZM486.608 596H454.435V446H486.608V596ZM596 596H505.913V446H596V596ZM377.218 568.728H396.521V473.272H377.218V568.728ZM557.392 568.728H576.695V473.272H557.392V568.728Z" fill="#F8BCC6"/>
</svg>
