<svg width="600" height="600" viewBox="0 0 600 600" fill="none" xmlns="http://www.w3.org/2000/svg">
<path d="M300 4C314.215 4 325.739 9.59644 325.739 16.5V135.25H300C285.785 135.25 274.261 140.846 274.261 147.75V197.75C274.261 201.202 268.499 204 261.392 204H203.479C189.263 204 177.739 198.404 177.739 191.5V22.75H171.222C164.152 22.7716 158.435 25.5606 158.435 28.999V191.5C158.435 198.404 146.911 204 132.695 204H29.7393C15.5239 204 4.00001 198.404 4 191.5V154C4 148.822 12.6432 144.625 23.3047 144.625H61.9131C69.0207 144.625 74.7822 147.423 74.7822 150.875V180.562L74.7949 180.804C75.0534 183.28 79.2705 185.25 84.4346 185.25C89.7653 185.25 94.0869 183.151 94.0869 180.562V16.5C94.0869 9.59644 105.611 4 119.826 4H300ZM570.261 4C584.476 4 596 9.59644 596 16.5V191.5C596 198.404 584.476 204 570.261 204H473.739C459.524 204 448 198.404 448 191.5V22.75H441.565L440.903 22.7578C434.103 22.9251 428.695 25.656 428.695 29V191.5C428.695 198.404 417.171 204 402.956 204H306.435C292.219 204 280.695 198.404 280.695 191.5V147.75C280.695 142.572 289.339 138.375 300 138.375H332.174C339.281 138.375 345.044 141.173 345.044 144.625V180.562C345.044 183.151 349.365 185.25 354.695 185.25C360.026 185.25 364.348 183.151 364.348 180.562V16.5C364.348 9.59645 375.872 4.00001 390.087 4H570.261ZM251.242 22.7559C246.142 22.8815 242.087 24.9296 242.087 27.4375V180.562C242.087 183.151 246.409 185.25 251.739 185.25C257.07 185.25 261.392 183.151 261.392 180.562V27.4375C261.392 24.9295 257.335 22.8813 252.235 22.7559L251.739 22.75L251.242 22.7559ZM521.503 22.7559C516.403 22.8815 512.348 24.9296 512.348 27.4375V180.562L512.36 180.804C512.619 183.28 516.836 185.25 522 185.25C527.331 185.25 531.652 183.151 531.652 180.562V27.4375C531.652 24.9296 527.597 22.8815 522.497 22.7559L522 22.75L521.503 22.7559Z" fill="#7C0E0F"/>
<path d="M132.695 313.818H94.0869V278.546H68.3477V349.091H132.695V596H4V419.637H68.3477V525.454H94.0869V384.363H4V208H132.695V313.818ZM171.305 596H152V278.546H139.131V208H184.174V278.546H171.305V596ZM261.392 525.454H280.695V208H306.435V596H190.608V208H261.392V525.454ZM415.826 278.546H435.131V525.454H415.826V596H325.739V208H415.826V278.546ZM486.608 596H454.435V208H486.608V596ZM596 596H505.913V208H596V596ZM377.218 525.454H396.521V278.546H377.218V525.454ZM557.392 525.454H576.695V278.546H557.392V525.454Z" fill="#F8BCC6"/>
</svg>
