<svg width="900" height="900" viewBox="0 0 900 900" fill="none" xmlns="http://www.w3.org/2000/svg">
<rect width="900" height="900" fill="white"/>
<rect x="226" y="5" width="448" height="88.9283" stroke="#7C0E0F" stroke-width="2"/>
<path d="M258.115 69.4047C258.115 83.0006 249.418 86.324 240.036 86.324C237.3 86.324 235.15 86.1226 233 85.7197V71.2175C234.564 71.4189 235.345 71.5196 236.323 71.5196C239.059 71.5196 241.893 70.4118 241.893 65.0742V13.7121H258.115V69.4047Z" fill="#7C0E0F"/>
<path d="M287.12 86.9283C273.048 86.9283 264.448 78.4686 264.448 63.3621V35.5661C264.448 20.4596 273.048 12 287.12 12C301.192 12 309.792 20.4596 309.792 35.5661V63.3621C309.792 78.4686 301.192 86.9283 287.12 86.9283ZM287.12 74.0374C290.834 74.0374 292.983 71.1168 292.983 65.5777V33.3505C292.983 27.8115 290.834 24.8909 287.12 24.8909C283.407 24.8909 281.257 27.8115 281.257 33.3505V65.5777C281.257 71.1168 283.407 74.0374 287.12 74.0374Z" fill="#7C0E0F"/>
<path d="M336.657 69.4047C336.657 83.0006 327.959 86.324 318.578 86.324C315.842 86.324 313.692 86.1226 311.542 85.7197V71.2175C313.105 71.4189 313.887 71.5196 314.864 71.5196C317.601 71.5196 320.435 70.4118 320.435 65.0742V13.7121H336.657V69.4047Z" fill="#7C0E0F"/>
<path d="M365.662 86.9283C351.59 86.9283 342.99 78.4686 342.99 63.3621V35.5661C342.99 20.4596 351.59 12 365.662 12C379.734 12 388.334 20.4596 388.334 35.5661V63.3621C388.334 78.4686 379.734 86.9283 365.662 86.9283ZM365.662 74.0374C369.375 74.0374 371.525 71.1168 371.525 65.5777V33.3505C371.525 27.8115 369.375 24.8909 365.662 24.8909C361.948 24.8909 359.798 27.8115 359.798 33.3505V65.5777C359.798 71.1168 361.948 74.0374 365.662 74.0374Z" fill="#7C0E0F"/>
<path d="M429.061 86.9283C415.673 86.9283 407.855 78.7707 407.855 66.9877V61.3479L424.468 58.1252V67.0884C424.468 71.4189 425.836 74.2388 429.159 74.2388C432.481 74.2388 433.654 71.6203 433.654 68.8005V65.6784C433.654 62.2543 432.97 60.4415 429.257 58.1252L418.116 51.2769C410.884 46.8457 408.441 41.7095 408.441 33.8541V30.0271C408.441 17.3376 418.214 12 429.159 12C441.765 12 450.267 16.7334 450.267 31.0342V36.2711L433.947 39.2924V30.6314C433.947 27.2072 432.775 24.2866 429.159 24.2866C426.325 24.2866 424.761 26.5022 424.761 29.2214V32.2427C424.761 35.1633 426.52 37.5803 429.159 39.1917L440.202 45.9393C448.117 50.7734 450.267 55.406 450.267 62.7579V69.4047C450.267 79.1736 442.938 86.9283 429.061 86.9283Z" fill="#7C0E0F"/>
<path d="M493.455 13.7121V27.8115H480.458V85.2162H464.236V27.8115H451.238V13.7121H493.455Z" fill="#7C0E0F"/>
<path d="M496.863 13.7121H513.183V66.2827C513.183 70.5125 514.942 72.8289 518.167 72.8289C521.392 72.8289 523.249 70.5125 523.249 66.2827V13.7121H539.471V66.887C539.471 79.375 531.848 86.9283 518.167 86.9283C504.388 86.9283 496.863 79.4757 496.863 66.887V13.7121Z" fill="#7C0E0F"/>
<path d="M547.839 85.2162V13.7121H567.97C583.019 13.7121 591.521 22.071 591.521 37.0768V60.9451C591.521 76.6558 583.215 85.2162 567.872 85.2162H547.839ZM564.158 73.3324H567.579C572.27 73.3324 574.713 68.9012 574.713 61.9522V36.1704C574.713 29.02 572.66 25.5959 567.579 25.5959H564.158V73.3324Z" fill="#7C0E0F"/>
<path d="M614.738 85.2162H598.418V13.7121H614.738V85.2162Z" fill="#7C0E0F"/>
<path d="M644.328 86.9283C630.256 86.9283 621.656 78.4686 621.656 63.3621V35.5661C621.656 20.4596 630.256 12 644.328 12C658.4 12 667 20.4596 667 35.5661V63.3621C667 78.4686 658.4 86.9283 644.328 86.9283ZM644.328 74.0374C648.042 74.0374 650.191 71.1168 650.191 65.5777V33.3505C650.191 27.8115 648.042 24.8909 644.328 24.8909C640.615 24.8909 638.465 27.8115 638.465 33.3505V65.5777C638.465 71.1168 640.615 74.0374 644.328 74.0374Z" fill="#7C0E0F"/>
<path d="M54.0063 413.437L28 352.49H35.3571L55.204 399.789C56.4872 402.879 57.1716 404.939 57.5993 406.913H57.8559C58.3692 404.939 59.0536 402.879 60.2513 399.789L80.1837 352.49H87.4553L61.4489 413.437H54.0063Z" fill="black"/>
<path d="M104.148 413.437H97.3894V352.49H104.148V413.437Z" fill="black"/>
<path d="M123.287 413.437V352.49H131.586L167.088 399.531C168.884 402.02 170.082 403.909 171.023 406.055H171.108C171.023 403.909 171.023 401.763 171.023 398.759V352.49H177.097V413.437H169.312L133.296 365.967C131.586 363.478 130.388 361.675 129.447 359.443H129.276C129.361 361.589 129.447 363.735 129.447 366.568V413.437H123.287Z" fill="black"/>
<path d="M241.218 352.49V358.242H217.778V413.437H210.934V358.242H187.494V352.49H241.218Z" fill="black"/>
<path d="M290.396 413.437L283.21 396.87H249.676L242.49 413.437H235.39L263.107 352.49H269.78L297.497 413.437H290.396ZM252.157 391.119H280.73L270.464 367.512C268.496 363.65 267.47 361.418 266.529 358.499H266.358C265.417 361.418 264.305 363.65 262.337 367.512L252.157 391.119Z" fill="black"/>
<path d="M331.388 415.24C312.396 415.24 300.591 402.02 300.591 382.964C300.591 363.65 312.653 350.688 332.671 350.688C350.293 350.688 358.677 360.817 360.73 369.916L353.886 371.032C352.175 363.821 345.588 356.439 332.329 356.439C316.93 356.439 307.52 366.911 307.52 383.05C307.52 398.329 316.417 409.403 332.329 409.403C349.181 409.403 355.341 397.643 355.341 389.402V387.599H332.157V381.848H361.5V413.437H356.282L355.597 402.106C351.662 410.175 342.936 415.24 331.388 415.24Z" fill="black"/>
<path d="M384.181 407.686H423.532V413.437H377.423V352.49H422.934V358.242H384.181V379.358H421.479V385.024H384.181V407.686Z" fill="black"/>
<path d="M513.493 358.242H474.74V379.358H512.039V385.11H474.74V413.437H467.982V352.49H513.493V358.242Z" fill="black"/>
<path d="M567.923 413.437L560.737 396.87H527.203L520.017 413.437H512.917L540.634 352.49H547.306L575.024 413.437H567.923ZM529.684 391.119H558.257L547.991 367.512C546.023 363.65 544.997 361.418 544.056 358.499H543.885C542.944 361.418 541.831 363.65 539.864 367.512L529.684 391.119Z" fill="black"/>
<path d="M607.87 415.24C590.076 415.24 580.751 407.514 578.613 394.638L585.713 393.608C587.424 403.308 594.439 409.489 608.041 409.489C619.162 409.489 626.091 405.969 626.091 397.814C626.091 390.346 621.557 387.513 611.976 386.054L598.374 384.166C587.595 382.535 581.436 377.642 581.436 367.942C581.436 357.211 590.418 350.688 605.731 350.688C620.787 350.688 630.369 356.525 632.593 369.143L625.578 370.603C623.782 360.988 617.622 356.267 605.56 356.267C594.781 356.267 588.451 360.302 588.451 367.341C588.451 373.693 592.129 376.869 601.197 378.328L614.543 380.217C626.434 382.105 633.106 386.569 633.106 397.213C633.106 408.115 624.552 415.24 607.87 415.24Z" fill="black"/>
<path d="M701.333 352.49V413.437H694.575V385.11H653.855V413.437H647.097V352.49H653.855V379.358H694.575V352.49H701.333Z" fill="black"/>
<path d="M727.288 413.437H720.53V352.49H727.288V413.437Z" fill="black"/>
<path d="M772.777 415.24C753.529 415.24 740.44 402.707 740.44 382.964C740.44 363.049 753.529 350.688 772.777 350.688C791.939 350.688 805.028 363.049 805.028 382.964C805.028 402.793 791.939 415.24 772.777 415.24ZM772.777 409.489C787.918 409.489 797.927 399.274 797.927 382.964C797.927 366.654 787.918 356.439 772.777 356.439C757.549 356.439 747.54 366.654 747.54 382.964C747.54 399.102 757.549 409.489 772.777 409.489Z" fill="black"/>
<path d="M818.191 413.437V352.49H826.489L861.991 399.531C863.787 402.02 864.985 403.909 865.926 406.055H866.012C865.926 403.909 865.926 401.763 865.926 398.759V352.49H872V413.437H864.215L828.2 365.967C826.489 363.478 825.291 361.675 824.35 359.443H824.179C824.265 361.589 824.35 363.735 824.35 366.568V413.437H818.191Z" fill="black"/>
<path d="M450 671C471.419 671 488.782 677.296 488.782 685.062V818.656H450C428.581 818.656 411.218 824.952 411.218 832.719V888.969C411.218 892.852 402.536 896 391.826 896H304.565C283.146 896 265.782 889.704 265.782 881.938V692.094H255.976C245.317 692.115 236.695 695.254 236.695 699.124V881.938C236.695 889.704 219.332 896 197.913 896H42.7822C21.3634 896 4 889.704 4 881.938V839.75C4 833.925 17.0227 829.203 33.0869 829.203H91.2607C101.97 829.203 110.652 832.351 110.652 836.234V869.633L110.657 869.769C110.856 872.618 117.289 874.906 125.195 874.906C133.227 874.906 139.739 872.545 139.739 869.633V685.062C139.739 677.296 157.103 671 178.521 671H450ZM857.218 671C878.637 671 896 677.296 896 685.062V881.938C896 889.704 878.637 896 857.218 896H711.782C690.363 896 673 889.704 673 881.938V692.094H663.305L662.307 692.103C652.061 692.291 643.913 695.363 643.913 699.125V881.938C643.913 889.704 626.55 896 605.131 896H459.695C438.276 896 420.913 889.704 420.913 881.938V832.719C420.913 826.894 433.936 822.172 450 822.172H498.479C509.188 822.172 517.869 825.32 517.869 829.203V869.633C517.869 872.545 524.381 874.906 532.413 874.906C540.445 874.906 546.956 872.545 546.956 869.633V685.062C546.956 677.296 564.32 671 585.739 671H857.218ZM377.282 692.094C369.25 692.094 362.739 694.455 362.739 697.367V869.633C362.739 872.545 369.25 874.906 377.282 874.906C385.314 874.906 391.826 872.545 391.826 869.633V697.367C391.826 694.455 385.314 692.094 377.282 692.094ZM783.752 692.101C776.067 692.242 769.956 694.546 769.956 697.367V869.633C769.956 872.545 776.468 874.906 784.5 874.906C792.532 874.906 799.044 872.545 799.044 869.633V697.367C799.044 694.546 792.933 692.242 785.248 692.101L784.5 692.094L783.752 692.101Z" fill="#7C0E0F"/>
</svg>
