<svg width="900" height="900" viewBox="0 0 900 900" fill="none" xmlns="http://www.w3.org/2000/svg">
<rect width="900" height="900" rx="450" fill="black"/>
<rect x="150.5" y="150.5" width="599" height="599" fill="#F8BCC6"/>
<rect x="150.5" y="150.5" width="599" height="599" stroke="#7C0E0F"/>
<path d="M450 375.336C464.215 375.336 475.739 379.514 475.739 384.669V473.332H450C435.785 473.332 424.261 477.511 424.261 482.665V519.997C424.26 522.574 418.499 524.663 411.392 524.663H353.479C339.263 524.663 327.739 520.485 327.739 515.33V389.335H321.305L320.642 389.341C313.842 389.466 308.435 391.504 308.435 394.001V515.33C308.435 520.485 296.911 524.663 282.695 524.663H179.739C165.524 524.663 154 520.485 154 515.33V487.331C154.001 483.465 162.644 480.332 173.305 480.332H211.913C219.021 480.332 224.782 482.421 224.782 484.998V507.164L224.795 507.344C225.053 509.193 229.27 510.664 234.435 510.664C239.765 510.664 244.087 509.097 244.087 507.164V384.669C244.087 379.514 255.611 375.336 269.826 375.336H450ZM720.261 375.336C734.476 375.336 746 379.514 746 384.669V515.33C746 520.485 734.476 524.663 720.261 524.663H623.739C609.524 524.663 598 520.485 598 515.33V389.335H591.565L590.903 389.342C584.103 389.467 578.695 391.505 578.695 394.002V515.33C578.695 520.485 567.171 524.663 552.956 524.663H456.435C442.219 524.663 430.695 520.485 430.695 515.33V482.665C430.695 478.799 439.339 475.665 450 475.665H482.174C489.281 475.665 495.044 477.755 495.044 480.332V507.164C495.044 509.097 499.365 510.664 504.695 510.664C510.026 510.664 514.348 509.097 514.348 507.164V384.669C514.348 379.514 525.872 375.336 540.087 375.336H720.261ZM401.242 389.34C396.143 389.434 392.087 390.963 392.087 392.835V507.164C392.087 509.097 396.409 510.664 401.739 510.664C407.07 510.664 411.392 509.097 411.392 507.164V392.835C411.391 390.963 407.335 389.433 402.235 389.34L401.739 389.335L401.242 389.34ZM671.503 389.34C666.403 389.434 662.348 390.963 662.348 392.835V507.164L662.36 507.344C662.618 509.193 666.836 510.664 672 510.664C677.331 510.664 681.652 509.097 681.652 507.164V392.835C681.652 390.963 677.597 389.434 672.497 389.34L672 389.335L671.503 389.34Z" fill="#7C0E0F"/>
</svg>
