<svg width="308" height="111" viewBox="0 0 308 111" fill="none" xmlns="http://www.w3.org/2000/svg">
<path d="M308 0V111H0V0H308ZM4 4V107H304V4H4ZM37.2451 12C50.3915 12 57.9043 17.7298 57.9043 32.3467V38.5439L45.5791 40.8828V33.5166C45.5791 25.7989 42.9967 21.8223 37.2451 21.8223C32.1982 21.8225 29.4991 25.4476 29.499 30.4756V34.4512C29.499 39.8302 31.494 43.3386 36.4238 46.3789L46.6357 52.9277C56.0259 58.8913 58.1386 65.3224 58.1387 74.3262V78.7705C58.1385 91.5163 50.9785 99 37.1279 99C23.5122 98.9999 16.0001 91.1653 16 76.8994V70L28.5596 67.6611V76.0811C28.5597 84.6169 31.3766 89.0603 37.2451 89.0605C42.7619 89.0605 45.3447 85.2015 45.3447 79.0039V75.9639C45.3447 69.4155 44.5231 66.1413 38.0674 61.9316L28.0898 55.6172C19.756 50.2382 16.8213 44.0402 16.8213 35.5039V31.2939C16.8215 19.25 24.9207 12.0002 37.2451 12ZM123.896 77.3672C123.896 84.5001 127.182 88.4756 133.168 88.4756C139.037 88.4756 142.441 84.5001 142.441 77.3672V13.9883H154.648V78.0684C154.648 90.6974 147.019 99 133.168 99C119.2 99 111.57 90.6974 111.57 78.0684V13.9883H123.896V77.3672ZM268.876 12C283.666 12 292 20.7704 292 37.0244V73.9756C292 90.2296 283.666 99 268.876 99C254.204 98.9999 245.87 90.1125 245.87 73.9756V37.0244C245.87 20.7705 254.204 12.0001 268.876 12ZM105.262 24.7461H89.0635V97.0117H76.9736V24.7461H60.6582V13.9883H105.262V24.7461ZM186.898 13.9883C203.449 13.9884 211.9 24.1619 211.9 44.3916V65.2061C211.9 86.2542 203.331 97.0117 186.663 97.0117H167.296V13.9883H186.898ZM234.986 97.0117H222.661V13.9883H234.986V97.0117ZM268.876 22.0566C262.303 22.0568 258.664 26.9683 258.664 35.7383V75.2617C258.664 83.9148 262.303 88.9432 268.876 88.9434C275.567 88.9434 279.323 84.0319 279.323 75.2617V35.7383C279.323 26.9681 275.567 22.0566 268.876 22.0566ZM179.621 87.54H185.842C194.997 87.54 199.105 80.5242 199.105 66.375V44.04C199.105 29.7741 195.115 23.3428 185.842 23.3428H179.621V87.54Z" fill="#7C0E0F"/>
</svg>
